
<svg xmlns="http://www.w3.org/2000/svg" version="1.1" xmlns:xlink="http://www.w3.org/1999/xlink" preserveAspectRatio="none" x="0px" y="0px" width="699px" height="509px" viewBox="0 0 699 509">
<defs>
<image id="____png" x="0" y="0" width="3093" height="2044" xlink:href="./mimg/____png.png"/>

<image id="____1_png" x="0" y="0" width="1076" height="1200" xlink:href="./mimg/____1_png.png"/>

<image id="n2_png" x="0" y="0" width="1076" height="1200" xlink:href="./mimg/n2_png.png"/>

<image id="xxxxx_png" x="0" y="0" width="1076" height="1200" xlink:href="./mimg/xxxxx_png.png"/>

<image id="dongpaiyun_png" x="0" y="0" width="1076" height="1200" xlink:href="./mimg/dongpaiyun_png.png"/>

<image id="g1_png" x="0" y="0" width="1076" height="1200" xlink:href="./mimg/g1_png.png"/>

<image id="g2_png" x="0" y="0" width="1076" height="1200" xlink:href="./mimg/g2_png.png"/>

<image id="ls1_png" x="0" y="0" width="1076" height="1200" xlink:href="./mimg/ls1_png.png"/>

<image id="hs_png" x="0" y="0" width="1076" height="1200" xlink:href="./mimg/hs_png.png"/>

<filter id="Filter_1" x="-20%" y="-20%" width="140%" height="140%" color-interpolation-filters="sRGB">
<feColorMatrix in="SourceGraphic" type="matrix" values="1 0 0 0 0 0 1 0 0 0 0 0 1 0 0 0 0 0 0 0" result="result1"/>
</filter>
</defs>

<g transform="matrix( 0.185699462890625, 0, 0, 0.185699462890625, 260.55,251.6) ">
<g transform="matrix( 1, 0, 0, 1, -1138,-680) ">
<use xlink:href="#____png"/>
</g>
</g>

<g transform="matrix( 0.1708221435546875, 0, 0, 0.1708221435546875, 353.85,237.95) ">
<g transform="matrix( 1, 0, 0, 1, -499,-404) ">
<use xlink:href="#____1_png"/>
</g>
</g>

<g transform="matrix( 0.190216064453125, 0, 0, 0.190216064453125, 463.1,105.85) ">
<g transform="matrix( 1, 0, 0, 1, -535,-293) ">
<use xlink:href="#n2_png"/>
</g>
</g>

<g transform="matrix( 0.19207763671875, 0, 0, 0.19207763671875, 463.1,79.2) ">
<g transform="matrix( 1, 0, 0, 1, -535,-293) ">
<use xlink:href="#n2_png"/>
</g>
</g>

<g transform="matrix( 0.196685791015625, 0, 0, 0.196685791015625, 463.15,53.8) ">
<g transform="matrix( 1, 0, 0, 1, -535,-293) ">
<use xlink:href="#n2_png"/>
</g>
</g>

<g transform="matrix( 0.1549224853515625, 0, 0, 0.1549224853515625, 298.15,143.25) ">
<g transform="matrix( 1, 0, 0, 1, -335,-251) ">
<use xlink:href="#xxxxx_png"/>
</g>
</g>

<g transform="matrix( 0.1588287353515625, 0, 0, 0.1588287353515625, 228.05,52) ">
<g transform="matrix( 1, 0, 0, 1, 0,0) ">
<use xlink:href="#dongpaiyun_png"/>
</g>
</g>

<g transform="matrix( 0.1287689208984375, 0, 0, 0.1287689208984375, 254.75,314.75) ">
<g transform="matrix( 1, 0, 0, 1, 0,0) ">
<use xlink:href="#g1_png"/>
</g>
</g>

<g transform="matrix( 0.1287841796875, 0, 0, 0.1287841796875, 89,203.2) ">
<g transform="matrix( 1, 0, 0, 1, 0,0) " filter="url(#Filter_1)">
<use xlink:href="#g2_png"/>
</g>
</g>

<g transform="matrix( 0.1409759521484375, 0, 0, 0.1409759521484375, 443.95,218.3) ">
<g transform="matrix( 1, 0, 0, 1, 0,0) ">
<use xlink:href="#g2_png"/>
</g>
</g>

<g transform="matrix( 0.1115570068359375, 0, 0, 0.1115570068359375, 103.25,186) ">
<g transform="matrix( 1, 0, 0, 1, 0,0) " filter="url(#Filter_1)">
<use xlink:href="#ls1_png"/>
</g>
</g>

<g transform="matrix( 0.1520843505859375, 0, 0, 0.1520843505859375, 442,205.2) ">
<g transform="matrix( 1, 0, 0, 1, 0,0) " filter="url(#Filter_1)">
<use xlink:href="#ls1_png"/>
</g>
</g>

<g transform="matrix( 0.12890625, 0, 0, 0.12890625, 256.15,298.65) ">
<g transform="matrix( 1, 0, 0, 1, 0,0) " filter="url(#Filter_1)">
<use xlink:href="#hs_png"/>
</g>
</g>
</svg>
